<svg xmlns="http://www.w3.org/2000/svg" xmlns:xlink="http://www.w3.org/1999/xlink" width="500" zoomAndPan="magnify" viewBox="0 0 375 374.999991" height="500" preserveAspectRatio="xMidYMid meet" version="1.0"><defs><g/></defs><g fill="#ffff00" fill-opacity="1"><g transform="translate(32.283284, 241.890014)"><g><path d="M 22.84375 -43.796875 L 74.84375 -22.40625 L 71.03125 -11.125 L 7.765625 -37.9375 L 7.765625 -49.65625 L 71.03125 -76.453125 L 74.84375 -65.171875 Z M 22.84375 -43.796875 "/></g></g></g><g fill="#ffff00" fill-opacity="1"><g transform="translate(114.874862, 241.890014)"><g><path d="M 10.40625 27.09375 L -3.515625 27.09375 L 46.140625 -114.6875 L 59.765625 -114.6875 Z M 10.40625 27.09375 "/></g></g></g><g fill="#ffff00" fill-opacity="1"><g transform="translate(171.107423, 241.890014)"><g><path d="M 39.546875 -102.53125 C 53.804688 -102.53125 64.765625 -99.816406 72.421875 -94.390625 C 80.085938 -88.972656 83.921875 -80.894531 83.921875 -70.15625 C 83.921875 -64.300781 82.867188 -59.296875 80.765625 -55.140625 C 78.671875 -50.992188 75.644531 -47.625 71.6875 -45.03125 C 67.738281 -42.445312 62.929688 -40.566406 57.265625 -39.390625 C 51.609375 -38.222656 45.210938 -37.640625 38.078125 -37.640625 L 26.796875 -37.640625 L 26.796875 0 L 12.59375 0 L 12.59375 -100.03125 C 16.59375 -101.007812 21.054688 -101.671875 25.984375 -102.015625 C 30.921875 -102.359375 35.441406 -102.53125 39.546875 -102.53125 Z M 40.71875 -90.078125 C 34.664062 -90.078125 30.023438 -89.929688 26.796875 -89.640625 L 26.796875 -49.796875 L 37.5 -49.796875 C 42.375 -49.796875 46.765625 -50.113281 50.671875 -50.75 C 54.578125 -51.382812 57.875 -52.457031 60.5625 -53.96875 C 63.25 -55.488281 65.320312 -57.566406 66.78125 -60.203125 C 68.25 -62.835938 68.984375 -66.207031 68.984375 -70.3125 C 68.984375 -74.207031 68.226562 -77.425781 66.71875 -79.96875 C 65.207031 -82.507812 63.15625 -84.535156 60.5625 -86.046875 C 57.976562 -87.566406 54.976562 -88.617188 51.5625 -89.203125 C 48.144531 -89.785156 44.53125 -90.078125 40.71875 -90.078125 Z M 40.71875 -90.078125 "/></g></g></g><g fill="#ffff00" fill-opacity="1"><g transform="translate(260.142312, 241.890014)"><g><path d="M 7.765625 -65.171875 L 11.578125 -76.453125 L 74.84375 -49.65625 L 74.84375 -37.9375 L 11.578125 -11.125 L 7.765625 -22.40625 L 59.765625 -43.796875 Z M 7.765625 -65.171875 "/></g></g></g></svg>